<svg width="18" height="18" viewBox="0 0 18 18" fill="none" xmlns="http://www.w3.org/2000/svg">
<path d="M17.7004 16.2967L13.2863 11.8766C15.5059 8.98807 15.2844 4.81462 12.6206 2.17297C11.1659 0.71662 9.29108 0 7.39228 0C5.49348 0 3.61861 0.715633 2.16399 2.17297C-0.721329 5.06153 -0.721329 9.75274 2.16399 12.6413C3.6187 14.0976 5.49348 14.8143 7.39228 14.8143C8.97031 14.8143 10.5494 14.3205 11.8568 13.3077L16.2951 17.7039C16.4926 17.9016 16.7392 18 17.0099 18C17.2566 18 17.5282 17.9016 17.7248 17.7039C18.0957 17.3335 18.0957 16.6912 17.7007 16.2967H17.7004ZM7.41625 12.8149C5.96153 12.8149 4.62909 12.2468 3.5935 11.2351C1.49715 9.13637 1.49715 5.70486 3.5935 3.58098C4.60507 2.56827 5.96153 2.00117 7.41625 2.00117C8.87097 2.00117 10.2034 2.56926 11.239 3.58098C12.2746 4.59369 12.817 5.95167 12.817 7.40802C12.817 8.86437 12.2496 10.1983 11.239 11.2351C10.2274 12.2719 8.8469 12.8149 7.41625 12.8149Z" fill="black"/>
</svg>